<svg width="256" height="97" viewBox="0 0 256 97" fill="none" xmlns="http://www.w3.org/2000/svg">
<path d="M73.8111 91L72.5611 79.3636H73.9929L74.8565 88.8409H74.9702L79.0156 79.3636H80.6065L81.5156 88.8409H81.6293L85.6293 79.3636H87.0611L81.9474 91H80.4929L79.4702 81.7273H79.3793L75.2656 91H73.8111ZM89.4929 91.1818C88.6899 91.1818 88.0175 90.9905 87.4759 90.608C86.9342 90.2254 86.5516 89.6894 86.3281 89C86.1084 88.3106 86.0724 87.5076 86.2202 86.5909C86.3641 85.697 86.6501 84.9186 87.0781 84.2557C87.5099 83.589 88.0459 83.0739 88.6861 82.7102C89.33 82.3428 90.0384 82.1591 90.8111 82.1591C91.6141 82.1591 92.2846 82.3523 92.8224 82.7386C93.3641 83.1212 93.7467 83.6591 93.9702 84.3523C94.1937 85.0417 94.2315 85.8485 94.0838 86.7727C93.9399 87.6591 93.6501 88.4337 93.2145 89.0966C92.7827 89.7557 92.2467 90.2689 91.6065 90.6364C90.9702 91 90.2656 91.1818 89.4929 91.1818ZM89.5156 89.9773C90.1293 89.9773 90.6615 89.8201 91.1122 89.5057C91.5668 89.1913 91.9342 88.7765 92.2145 88.2614C92.4986 87.7462 92.6899 87.1894 92.7884 86.5909C92.8793 86.0227 92.8755 85.4943 92.777 85.0057C92.6785 84.5133 92.4683 84.1174 92.1463 83.8182C91.8243 83.5152 91.3717 83.3636 90.7884 83.3636C90.1747 83.3636 89.6387 83.5227 89.1804 83.8409C88.7259 84.1591 88.3584 84.5777 88.0781 85.0966C87.7978 85.6155 87.6103 86.1742 87.5156 86.7727C87.4247 87.3409 87.4266 87.8693 87.5213 88.358C87.6198 88.8428 87.83 89.2348 88.152 89.5341C88.4777 89.8295 88.9323 89.9773 89.5156 89.9773ZM98.7102 79.3636L96.7784 91H95.4375L97.3693 79.3636H98.7102ZM104.484 82.2727L104.303 83.4091H99.7798L99.9616 82.2727H104.484ZM101.621 80.1818H102.962L101.575 88.5C101.515 88.8788 101.524 89.1629 101.604 89.3523C101.687 89.5379 101.812 89.6629 101.979 89.7273C102.149 89.7879 102.333 89.8182 102.53 89.8182C102.678 89.8182 102.799 89.8106 102.893 89.7955C102.988 89.7765 103.064 89.7614 103.121 89.75L103.212 90.9545C103.109 90.9886 102.971 91.0227 102.797 91.0568C102.626 91.0947 102.416 91.1136 102.166 91.1136C101.787 91.1136 101.431 91.0322 101.098 90.8693C100.765 90.7064 100.509 90.4583 100.331 90.125C100.153 89.7917 100.106 89.3712 100.189 88.8636L101.621 80.1818ZM108.589 91.1818C107.752 91.1818 107.061 90.9962 106.516 90.625C105.97 90.25 105.589 89.7273 105.374 89.0568C105.158 88.3826 105.124 87.5985 105.271 86.7045C105.419 85.8106 105.713 85.0227 106.152 84.3409C106.591 83.6553 107.139 83.1212 107.794 82.7386C108.449 82.3523 109.169 82.1591 109.953 82.1591C110.408 82.1591 110.845 82.2348 111.266 82.3864C111.686 82.5379 112.05 82.7841 112.357 83.125C112.663 83.4621 112.877 83.9091 112.999 84.4659C113.12 85.0227 113.112 85.7083 112.976 86.5227L112.885 87.0909H106.158L106.339 85.9318H111.703C111.79 85.4394 111.768 85 111.635 84.6136C111.506 84.2273 111.281 83.9223 110.959 83.6989C110.641 83.4754 110.237 83.3636 109.749 83.3636C109.245 83.3636 108.775 83.5 108.339 83.7727C107.904 84.0417 107.54 84.3826 107.249 84.7955C106.957 85.2045 106.775 85.6212 106.703 86.0455L106.544 87.0455C106.43 87.7689 106.447 88.3447 106.595 88.7727C106.747 89.2008 107.01 89.5095 107.385 89.6989C107.76 89.8845 108.23 89.9773 108.794 89.9773C109.154 89.9773 109.485 89.928 109.788 89.8295C110.091 89.7273 110.362 89.5758 110.601 89.375C110.839 89.1705 111.04 88.9167 111.203 88.6136L112.43 88.9773C112.222 89.4167 111.929 89.803 111.55 90.1364C111.175 90.4659 110.735 90.7235 110.232 90.9091C109.732 91.0909 109.184 91.1818 108.589 91.1818ZM114.297 91L115.751 82.2727H117.047L116.82 83.5909H116.911C117.138 83.1591 117.484 82.8087 117.95 82.5398C118.416 82.2708 118.911 82.1364 119.433 82.1364C119.536 82.1364 119.659 82.1383 119.803 82.142C119.946 82.142 120.058 82.1477 120.138 82.1591L119.911 83.5227C119.865 83.5114 119.763 83.4943 119.604 83.4716C119.445 83.4451 119.274 83.4318 119.092 83.4318C118.668 83.4318 118.276 83.5208 117.916 83.6989C117.556 83.8731 117.255 84.1155 117.013 84.4261C116.77 84.733 116.615 85.0833 116.547 85.4773L115.638 91H114.297ZM127.599 84.2273L126.327 84.5682C126.281 84.3636 126.202 84.1667 126.088 83.9773C125.978 83.7841 125.808 83.6269 125.577 83.5057C125.349 83.3807 125.039 83.3182 124.645 83.3182C124.111 83.3182 123.647 83.4413 123.253 83.6875C122.859 83.9299 122.634 84.2386 122.577 84.6136C122.52 84.9432 122.596 85.2064 122.804 85.4034C123.012 85.6004 123.361 85.7614 123.849 85.8864L125.099 86.2045C125.849 86.3977 126.384 86.6875 126.702 87.0739C127.024 87.4564 127.134 87.9545 127.031 88.5682C126.948 89.0682 126.73 89.5152 126.378 89.9091C126.026 90.303 125.575 90.6136 125.026 90.8409C124.476 91.0682 123.865 91.1818 123.19 91.1818C122.293 91.1818 121.584 90.9886 121.065 90.6023C120.546 90.2121 120.27 89.6477 120.236 88.9091L121.577 88.5909C121.611 89.0568 121.777 89.4091 122.077 89.6477C122.38 89.8826 122.804 90 123.349 90C123.974 90 124.495 89.8674 124.912 89.6023C125.329 89.3333 125.565 89.0114 125.622 88.6364C125.679 88.3295 125.618 88.0739 125.44 87.8693C125.266 87.6648 124.963 87.5114 124.531 87.4091L123.145 87.0682C122.372 86.875 121.83 86.5795 121.52 86.1818C121.213 85.7841 121.111 85.2841 121.213 84.6818C121.296 84.1894 121.509 83.7538 121.849 83.375C122.194 82.9962 122.626 82.6989 123.145 82.483C123.668 82.267 124.236 82.1591 124.849 82.1591C125.713 82.1591 126.359 82.3485 126.787 82.7273C127.215 83.1023 127.486 83.6023 127.599 84.2273ZM133.8 91H132.322L138.527 79.3636H139.982L142.322 91H140.845L139.004 81.2045H138.913L133.8 91ZM135.095 86.4545H141.05L140.845 87.7045H134.891L135.095 86.4545ZM144.047 91L145.501 82.2727H146.842L145.388 91H144.047ZM146.581 80.7955C146.32 80.7955 146.094 80.7064 145.905 80.5284C145.719 80.3504 145.626 80.1364 145.626 79.8864C145.626 79.6364 145.719 79.4223 145.905 79.2443C146.094 79.0663 146.32 78.9773 146.581 78.9773C146.842 78.9773 147.066 79.0663 147.251 79.2443C147.441 79.4223 147.536 79.6364 147.536 79.8864C147.536 80.1364 147.441 80.3504 147.251 80.5284C147.066 80.7064 146.842 80.7955 146.581 80.7955ZM147.844 91L149.298 82.2727H150.594L150.366 83.5909H150.457C150.685 83.1591 151.031 82.8087 151.497 82.5398C151.963 82.2708 152.457 82.1364 152.98 82.1364C153.082 82.1364 153.205 82.1383 153.349 82.142C153.493 82.142 153.605 82.1477 153.685 82.1591L153.457 83.5227C153.412 83.5114 153.31 83.4943 153.151 83.4716C152.991 83.4451 152.821 83.4318 152.639 83.4318C152.215 83.4318 151.823 83.5208 151.463 83.6989C151.103 83.8731 150.802 84.1155 150.56 84.4261C150.317 84.733 150.162 85.0833 150.094 85.4773L149.185 91H147.844ZM153.283 94.2727L155.294 82.2727H156.589L156.362 83.6591H156.521C156.643 83.5076 156.809 83.3144 157.021 83.0795C157.237 82.8409 157.527 82.6288 157.891 82.4432C158.258 82.2538 158.726 82.1591 159.294 82.1591C160.029 82.1591 160.644 82.3428 161.141 82.7102C161.637 83.0777 161.987 83.5985 162.192 84.2727C162.396 84.947 162.423 85.7424 162.271 86.6591C162.12 87.5833 161.83 88.3845 161.402 89.0625C160.974 89.7367 160.451 90.2595 159.834 90.6307C159.216 90.9981 158.544 91.1818 157.817 91.1818C157.256 91.1818 156.822 91.089 156.516 90.9034C156.209 90.714 155.985 90.5 155.845 90.2614C155.705 90.0189 155.597 89.8182 155.521 89.6591H155.408L154.635 94.2727H153.283ZM155.885 86.6364C155.779 87.2955 155.779 87.8769 155.885 88.3807C155.995 88.8807 156.213 89.2727 156.538 89.5568C156.868 89.8371 157.302 89.9773 157.839 89.9773C158.4 89.9773 158.891 89.8295 159.311 89.5341C159.735 89.2348 160.084 88.8333 160.357 88.3295C160.633 87.822 160.824 87.2576 160.93 86.6364C161.029 86.0227 161.025 85.4697 160.919 84.9773C160.813 84.4811 160.597 84.089 160.271 83.8011C159.946 83.5095 159.499 83.3636 158.93 83.3636C158.385 83.3636 157.902 83.5019 157.482 83.7784C157.065 84.0511 156.72 84.4337 156.447 84.9261C156.179 85.4148 155.991 85.9848 155.885 86.6364ZM167.196 91.1818C166.393 91.1818 165.721 90.9905 165.179 90.608C164.637 90.2254 164.255 89.6894 164.031 89C163.812 88.3106 163.776 87.5076 163.923 86.5909C164.067 85.697 164.353 84.9186 164.781 84.2557C165.213 83.589 165.749 83.0739 166.389 82.7102C167.033 82.3428 167.741 82.1591 168.514 82.1591C169.317 82.1591 169.988 82.3523 170.526 82.7386C171.067 83.1212 171.45 83.6591 171.673 84.3523C171.897 85.0417 171.935 85.8485 171.787 86.7727C171.643 87.6591 171.353 88.4337 170.918 89.0966C170.486 89.7557 169.95 90.2689 169.31 90.6364C168.673 91 167.969 91.1818 167.196 91.1818ZM167.219 89.9773C167.832 89.9773 168.365 89.8201 168.815 89.5057C169.27 89.1913 169.637 88.7765 169.918 88.2614C170.202 87.7462 170.393 87.1894 170.491 86.5909C170.582 86.0227 170.579 85.4943 170.48 85.0057C170.382 84.5133 170.171 84.1174 169.849 83.8182C169.527 83.5152 169.075 83.3636 168.491 83.3636C167.878 83.3636 167.342 83.5227 166.884 83.8409C166.429 84.1591 166.062 84.5777 165.781 85.0966C165.501 85.6155 165.313 86.1742 165.219 86.7727C165.128 87.3409 165.13 87.8693 165.224 88.358C165.323 88.8428 165.533 89.2348 165.855 89.5341C166.181 89.8295 166.635 89.9773 167.219 89.9773ZM173.141 91L174.595 82.2727H175.891L175.663 83.5909H175.754C175.982 83.1591 176.328 82.8087 176.794 82.5398C177.26 82.2708 177.754 82.1364 178.277 82.1364C178.379 82.1364 178.502 82.1383 178.646 82.142C178.79 82.142 178.902 82.1477 178.982 82.1591L178.754 83.5227C178.709 83.5114 178.607 83.4943 178.447 83.4716C178.288 83.4451 178.118 83.4318 177.936 83.4318C177.512 83.4318 177.12 83.5208 176.76 83.6989C176.4 83.8731 176.099 84.1155 175.857 84.4261C175.614 84.733 175.459 85.0833 175.391 85.4773L174.482 91H173.141ZM184.922 82.2727L184.74 83.4091H180.217L180.399 82.2727H184.922ZM182.058 80.1818H183.399L182.013 88.5C181.952 88.8788 181.962 89.1629 182.041 89.3523C182.125 89.5379 182.25 89.6629 182.416 89.7273C182.587 89.7879 182.77 89.8182 182.967 89.8182C183.115 89.8182 183.236 89.8106 183.331 89.7955C183.426 89.7765 183.501 89.7614 183.558 89.75L183.649 90.9545C183.547 90.9886 183.409 91.0227 183.234 91.0568C183.064 91.0947 182.854 91.1136 182.604 91.1136C182.225 91.1136 181.869 91.0322 181.536 90.8693C181.202 90.7064 180.946 90.4583 180.768 90.125C180.59 89.7917 180.543 89.3712 180.626 88.8636L182.058 80.1818Z" fill="white" fill-opacity="0.5"/>
<path d="M105 43.6193H112.805L115.147 61.7738L129.977 37.1774L138.953 33.4684V60.0169L157.491 29.369H166.857L137.392 73.2912H131.733V48.8899L117.489 73.2912H110.854L105 43.6193Z" fill="white" fill-opacity="0.5"/>
<path d="M173.297 16.8755L169.589 21.951V22.1462L170.565 26.636C170.76 27.2216 169.98 27.8073 169.394 27.4168L162.369 23.3174C161.784 22.927 161.979 22.1462 162.564 21.951L167.248 20.7797C167.248 20.7797 167.443 20.7797 167.443 20.5845L170.76 14.7282C170.955 14.3378 170.76 13.7521 170.37 13.5569L161.199 11.2144C160.418 11.0192 160.418 9.84794 161.394 9.65273L174.272 8.87189C174.272 8.87189 174.468 8.87189 174.468 8.67668L180.126 1.2587C180.712 -0.10777 186.371 -1.47424 182.858 3.60122C181.102 6.13895 178.37 9.84794 177.785 10.6288V10.824L182.273 20.7797C182.663 21.5605 181.688 22.1462 181.102 21.5605L175.248 15.8994L174.272 16.0947L173.297 16.8755Z" fill="white" fill-opacity="0.5"/>
</svg>
